<svg id="mol11" xmlns="http://www.w3.org/2000/svg" version="1.1" width="146px" height="63px" viewBox="80 69 146 63">
  <style> text {font-family: sans-serif;} #mol11 { pointer-events:none; } #mol11 .event  { pointer-events:all; } line { stroke-linecap:round; } polygon { stroke-linejoin:round; } </style>
  <text x="206.91" y="92.67" stroke="none" font-size="14" fill="rgb(255,13,13)">O</text>
  <line x1="150" y1="76" x2="170.78" y2="88" stroke="rgb(0,0,0)" stroke-width="1.44" />
  <line x1="152.22" y1="73.12" x2="170.37" y2="83.6" stroke="rgb(0,0,0)" stroke-width="1.44" />
  <line x1="192.89" y1="78.84" x2="205.01" y2="85.84" stroke="rgb(0,0,0)" stroke-width="1.44" />
  <line x1="192.47" y1="74.44" x2="206.81" y2="82.72" stroke="rgb(0,0,0)" stroke-width="1.44" />
  <line x1="129.21" y1="112" x2="129.21" y2="88" stroke="rgb(0,0,0)" stroke-width="1.44" />
  <line x1="125.61" y1="109.44" x2="125.61" y2="90.56" stroke="rgb(0,0,0)" stroke-width="1.44" />
  <line x1="87.65" y1="88" x2="108.43" y2="76" stroke="rgb(0,0,0)" stroke-width="1.44" />
  <line x1="91.66" y1="89.84" x2="108.01" y2="80.4" stroke="rgb(0,0,0)" stroke-width="1.44" />
  <line x1="87.65" y1="112" x2="108.43" y2="124" stroke="rgb(0,0,0)" stroke-width="1.44" />
  <line x1="91.66" y1="110.16" x2="108.01" y2="119.6" stroke="rgb(0,0,0)" stroke-width="1.44" />
  <line x1="192.47" y1="74.44" x2="170.78" y2="88" stroke="rgb(0,0,0)" stroke-width="1.44" />
  <line x1="150" y1="76" x2="129.21" y2="88" stroke="rgb(0,0,0)" stroke-width="1.44" />
  <line x1="108.43" y1="76" x2="129.21" y2="88" stroke="rgb(0,0,0)" stroke-width="1.44" />
  <line x1="108.43" y1="124" x2="129.21" y2="112" stroke="rgb(0,0,0)" stroke-width="1.44" />
  <line x1="87.65" y1="88" x2="87.65" y2="112" stroke="rgb(0,0,0)" stroke-width="1.44" />
  <text x="153.39" y="91.93" stroke="none" font-size="9" fill="rgb(160,0,0)">E</text>
  <line id="mol11:Bond:0" class="event" x1="150" y1="76" x2="170.78" y2="88" stroke-width="8" opacity="0" />
  <line id="mol11:Bond:1" class="event" x1="212.35" y1="88" x2="191.57" y2="76" stroke-width="8" opacity="0" />
  <line id="mol11:Bond:5" class="event" x1="129.21" y1="112" x2="129.21" y2="88" stroke-width="8" opacity="0" />
  <line id="mol11:Bond:6" class="event" x1="87.65" y1="88" x2="108.43" y2="76" stroke-width="8" opacity="0" />
  <line id="mol11:Bond:8" class="event" x1="87.65" y1="112" x2="108.43" y2="124" stroke-width="8" opacity="0" />
  <line id="mol11:Bond:2" class="event" x1="191.57" y1="76" x2="170.78" y2="88" stroke-width="8" opacity="0" />
  <line id="mol11:Bond:3" class="event" x1="150" y1="76" x2="129.21" y2="88" stroke-width="8" opacity="0" />
  <line id="mol11:Bond:4" class="event" x1="108.43" y1="76" x2="129.21" y2="88" stroke-width="8" opacity="0" />
  <line id="mol11:Bond:7" class="event" x1="108.43" y1="124" x2="129.21" y2="112" stroke-width="8" opacity="0" />
  <line id="mol11:Bond:9" class="event" x1="87.65" y1="88" x2="87.65" y2="112" stroke-width="8" opacity="0" />
  <circle id="mol11:Atom:0" class="event" cx="170.78" cy="88" r="8" opacity="0" />
  <circle id="mol11:Atom:1" class="event" cx="150" cy="76" r="8" opacity="0" />
  <circle id="mol11:Atom:2" class="event" cx="212.35" cy="88" r="8" opacity="0" />
  <circle id="mol11:Atom:3" class="event" cx="191.57" cy="76" r="8" opacity="0" />
  <circle id="mol11:Atom:4" class="event" cx="129.21" cy="88" r="8" opacity="0" />
  <circle id="mol11:Atom:5" class="event" cx="108.43" cy="76" r="8" opacity="0" />
  <circle id="mol11:Atom:6" class="event" cx="129.21" cy="112" r="8" opacity="0" />
  <circle id="mol11:Atom:7" class="event" cx="87.65" cy="88" r="8" opacity="0" />
  <circle id="mol11:Atom:8" class="event" cx="108.43" cy="124" r="8" opacity="0" />
  <circle id="mol11:Atom:9" class="event" cx="87.65" cy="112" r="8" opacity="0" />
</svg>