<svg id="mol14" xmlns="http://www.w3.org/2000/svg" version="1.1" width="181px" height="65px" viewBox="59 68 181 65">
  <style> text {font-family: sans-serif;} #mol14 { pointer-events:none; } #mol14 .event  { pointer-events:all; } line { stroke-linecap:round; } polygon { stroke-linejoin:round; } </style>
  <text x="165.34" y="86.67" stroke="none" font-size="14" fill="rgb(255,13,13)">O</text>
  <text x="123.77" y="86.67" stroke="none" font-size="14" fill="rgb(255,13,13)">O</text>
  <text x="186.12" y="122.67" stroke="none" font-size="14" fill="rgb(255,13,13)">O</text>
  <line x1="172.58" y1="107.04" x2="172.58" y2="89" stroke="rgb(0,0,0)" stroke-width="1.44" />
  <line x1="168.98" y1="107.04" x2="168.98" y2="89" stroke="rgb(0,0,0)" stroke-width="1.44" />
  <line x1="131.01" y1="107.04" x2="131.01" y2="89" stroke="rgb(0,0,0)" stroke-width="1.44" />
  <line x1="127.41" y1="107.04" x2="127.41" y2="89" stroke="rgb(0,0,0)" stroke-width="1.44" />
  <line x1="170.78" y1="106" x2="150" y2="118" stroke="rgb(0,0,0)" stroke-width="1.44" />
  <line x1="129.21" y1="106" x2="150" y2="118" stroke="rgb(0,0,0)" stroke-width="1.44" />
  <line x1="185.12" y1="114.28" x2="170.78" y2="106" stroke="rgb(0,0,0)" stroke-width="1.44" />
  <line x1="108.43" y1="118" x2="129.21" y2="106" stroke="rgb(0,0,0)" stroke-width="1.44" />
  <line x1="212.35" y1="106" x2="198.01" y2="114.28" stroke="rgb(0,0,0)" stroke-width="1.44" />
  <line x1="87.65" y1="106" x2="108.43" y2="118" stroke="rgb(0,0,0)" stroke-width="1.44" />
  <line x1="233.14" y1="118" x2="212.35" y2="106" stroke="rgb(0,0,0)" stroke-width="1.44" />
  <line x1="66.86" y1="118" x2="87.65" y2="106" stroke="rgb(0,0,0)" stroke-width="1.44" />
  <line id="mol14:Bond:2" class="event" x1="170.78" y1="82" x2="170.78" y2="106" stroke-width="8" opacity="0" />
  <line id="mol14:Bond:3" class="event" x1="129.21" y1="82" x2="129.21" y2="106" stroke-width="8" opacity="0" />
  <line id="mol14:Bond:0" class="event" x1="170.78" y1="106" x2="150" y2="118" stroke-width="8" opacity="0" />
  <line id="mol14:Bond:1" class="event" x1="129.21" y1="106" x2="150" y2="118" stroke-width="8" opacity="0" />
  <line id="mol14:Bond:4" class="event" x1="191.57" y1="118" x2="170.78" y2="106" stroke-width="8" opacity="0" />
  <line id="mol14:Bond:5" class="event" x1="108.43" y1="118" x2="129.21" y2="106" stroke-width="8" opacity="0" />
  <line id="mol14:Bond:6" class="event" x1="212.35" y1="106" x2="191.57" y2="118" stroke-width="8" opacity="0" />
  <line id="mol14:Bond:7" class="event" x1="87.65" y1="106" x2="108.43" y2="118" stroke-width="8" opacity="0" />
  <line id="mol14:Bond:8" class="event" x1="233.14" y1="118" x2="212.35" y2="106" stroke-width="8" opacity="0" />
  <line id="mol14:Bond:9" class="event" x1="66.86" y1="118" x2="87.65" y2="106" stroke-width="8" opacity="0" />
  <circle id="mol14:Atom:0" class="event" cx="150" cy="118" r="8" opacity="0" />
  <circle id="mol14:Atom:1" class="event" cx="170.78" cy="106" r="8" opacity="0" />
  <circle id="mol14:Atom:2" class="event" cx="129.21" cy="106" r="8" opacity="0" />
  <circle id="mol14:Atom:3" class="event" cx="170.78" cy="82" r="8" opacity="0" />
  <circle id="mol14:Atom:4" class="event" cx="129.21" cy="82" r="8" opacity="0" />
  <circle id="mol14:Atom:5" class="event" cx="191.57" cy="118" r="8" opacity="0" />
  <circle id="mol14:Atom:6" class="event" cx="108.43" cy="118" r="8" opacity="0" />
  <circle id="mol14:Atom:7" class="event" cx="212.35" cy="106" r="8" opacity="0" />
  <circle id="mol14:Atom:8" class="event" cx="87.65" cy="106" r="8" opacity="0" />
  <circle id="mol14:Atom:9" class="event" cx="233.14" cy="118" r="8" opacity="0" />
  <circle id="mol14:Atom:10" class="event" cx="66.86" cy="118" r="8" opacity="0" />
</svg>