<svg id="mol15" xmlns="http://www.w3.org/2000/svg" version="1.1" width="98px" height="106px" viewBox="101 44 98 106">
  <style> text {font-family: sans-serif;} #mol15 { pointer-events:none; } #mol15 .event  { pointer-events:all; } line { stroke-linecap:round; } polygon { stroke-linejoin:round; } </style>
  <text x="165.34" y="62.67" stroke="none" font-size="14" fill="rgb(255,13,13)">O</text>
  <text x="123.77" y="62.67" stroke="none" font-size="14" fill="rgb(255,13,13)">O</text>
  <line x1="170.78" y1="106" x2="150" y2="94" stroke="rgb(0,0,0)" stroke-width="1.44" />
  <line x1="166.77" y1="107.84" x2="150.42" y2="98.4" stroke="rgb(0,0,0)" stroke-width="1.44" />
  <line x1="129.21" y1="130" x2="129.21" y2="106" stroke="rgb(0,0,0)" stroke-width="1.44" />
  <line x1="132.81" y1="127.44" x2="132.81" y2="108.56" stroke="rgb(0,0,0)" stroke-width="1.44" />
  <line x1="150" y1="142" x2="170.78" y2="130" stroke="rgb(0,0,0)" stroke-width="1.44" />
  <line x1="150.42" y1="137.6" x2="166.77" y2="128.16" stroke="rgb(0,0,0)" stroke-width="1.44" />
  <line x1="150" y1="94" x2="150" y2="70" stroke="rgb(0,0,0)" stroke-width="1.44" />
  <line x1="164.34" y1="61.72" x2="150" y2="70" stroke="rgb(0,0,0)" stroke-width="1.44" />
  <line x1="135.66" y1="61.72" x2="150" y2="70" stroke="rgb(0,0,0)" stroke-width="1.44" />
  <line x1="129.21" y1="106" x2="150" y2="94" stroke="rgb(0,0,0)" stroke-width="1.44" />
  <line x1="191.57" y1="70" x2="177.23" y2="61.72" stroke="rgb(0,0,0)" stroke-width="1.44" />
  <line x1="108.43" y1="70" x2="122.77" y2="61.72" stroke="rgb(0,0,0)" stroke-width="1.44" />
  <line x1="170.78" y1="130" x2="170.78" y2="106" stroke="rgb(0,0,0)" stroke-width="1.44" />
  <line x1="129.21" y1="130" x2="150" y2="142" stroke="rgb(0,0,0)" stroke-width="1.44" />
  <line id="mol15:Bond:4" class="event" x1="170.78" y1="106" x2="150" y2="94" stroke-width="8" opacity="0" />
  <line id="mol15:Bond:7" class="event" x1="129.21" y1="130" x2="129.21" y2="106" stroke-width="8" opacity="0" />
  <line id="mol15:Bond:9" class="event" x1="150" y1="142" x2="170.78" y2="130" stroke-width="8" opacity="0" />
  <line id="mol15:Bond:0" class="event" x1="150" y1="94" x2="150" y2="70" stroke-width="8" opacity="0" />
  <line id="mol15:Bond:1" class="event" x1="170.78" y1="58" x2="150" y2="70" stroke-width="8" opacity="0" />
  <line id="mol15:Bond:2" class="event" x1="129.21" y1="58" x2="150" y2="70" stroke-width="8" opacity="0" />
  <line id="mol15:Bond:3" class="event" x1="129.21" y1="106" x2="150" y2="94" stroke-width="8" opacity="0" />
  <line id="mol15:Bond:5" class="event" x1="191.57" y1="70" x2="170.78" y2="58" stroke-width="8" opacity="0" />
  <line id="mol15:Bond:6" class="event" x1="108.43" y1="70" x2="129.21" y2="58" stroke-width="8" opacity="0" />
  <line id="mol15:Bond:8" class="event" x1="170.78" y1="130" x2="170.78" y2="106" stroke-width="8" opacity="0" />
  <line id="mol15:Bond:10" class="event" x1="129.21" y1="130" x2="150" y2="142" stroke-width="8" opacity="0" />
  <circle id="mol15:Atom:0" class="event" cx="150" cy="70" r="8" opacity="0" />
  <circle id="mol15:Atom:1" class="event" cx="150" cy="94" r="8" opacity="0" />
  <circle id="mol15:Atom:2" class="event" cx="170.78" cy="58" r="8" opacity="0" />
  <circle id="mol15:Atom:3" class="event" cx="129.21" cy="58" r="8" opacity="0" />
  <circle id="mol15:Atom:4" class="event" cx="129.21" cy="106" r="8" opacity="0" />
  <circle id="mol15:Atom:5" class="event" cx="170.78" cy="106" r="8" opacity="0" />
  <circle id="mol15:Atom:6" class="event" cx="191.57" cy="70" r="8" opacity="0" />
  <circle id="mol15:Atom:7" class="event" cx="108.43" cy="70" r="8" opacity="0" />
  <circle id="mol15:Atom:8" class="event" cx="129.21" cy="130" r="8" opacity="0" />
  <circle id="mol15:Atom:9" class="event" cx="170.78" cy="130" r="8" opacity="0" />
  <circle id="mol15:Atom:10" class="event" cx="150" cy="142" r="8" opacity="0" />
</svg>