<svg id="mol17" xmlns="http://www.w3.org/2000/svg" version="1.1" width="104px" height="94px" viewBox="95 50 104 94">
  <style> text {font-family: sans-serif;} #mol17 { pointer-events:none; } #mol17 .event  { pointer-events:all; } line { stroke-linecap:round; } polygon { stroke-linejoin:round; } </style>
  <text x="124.16" y="92.67" stroke="none" font-size="14" fill="rgb(48,80,248)">N</text>
  <text x="135.27" y="87" stroke="none" font-size="9" fill="rgb(48,80,248)">+</text>
  <text x="123.77" y="68.67" stroke="none" font-size="14" fill="rgb(255,13,13)">O</text>
  <text x="135.66" y="63" stroke="none" font-size="9" fill="rgb(255,13,13)">-</text>
  <text x="102.98" y="104.67" stroke="none" font-size="14" fill="rgb(255,13,13)">O</text>
  <line x1="115.78" y1="97.84" x2="124.06" y2="93.05" stroke="rgb(0,0,0)" stroke-width="1.44" />
  <line x1="113.98" y1="94.72" x2="122.26" y2="89.94" stroke="rgb(0,0,0)" stroke-width="1.44" />
  <line x1="150" y1="124" x2="150" y2="100" stroke="rgb(0,0,0)" stroke-width="1.44" />
  <line x1="153.6" y1="121.44" x2="153.6" y2="102.56" stroke="rgb(0,0,0)" stroke-width="1.44" />
  <line x1="191.57" y1="100" x2="170.78" y2="88" stroke="rgb(0,0,0)" stroke-width="1.44" />
  <line x1="187.55" y1="101.84" x2="171.2" y2="92.4" stroke="rgb(0,0,0)" stroke-width="1.44" />
  <line x1="170.78" y1="136" x2="191.57" y2="124" stroke="rgb(0,0,0)" stroke-width="1.44" />
  <line x1="171.2" y1="131.6" x2="187.55" y2="122.16" stroke="rgb(0,0,0)" stroke-width="1.44" />
  <line x1="150" y1="100" x2="135.27" y2="91.5" stroke="rgb(0,0,0)" stroke-width="1.44" />
  <line x1="129.21" y1="71" x2="129.21" y2="81" stroke="rgb(0,0,0)" stroke-width="1.44" />
  <line x1="170.78" y1="88" x2="150" y2="100" stroke="rgb(0,0,0)" stroke-width="1.44" />
  <line x1="129.21" y1="136" x2="150" y2="124" stroke="rgb(0,0,0)" stroke-width="1.44" />
  <line x1="170.78" y1="136" x2="150" y2="124" stroke="rgb(0,0,0)" stroke-width="1.44" />
  <line x1="191.57" y1="124" x2="191.57" y2="100" stroke="rgb(0,0,0)" stroke-width="1.44" />
  <line id="mol17:Bond:2" class="event" x1="108.43" y1="100" x2="129.21" y2="88" stroke-width="8" opacity="0" />
  <line id="mol17:Bond:3" class="event" x1="150" y1="124" x2="150" y2="100" stroke-width="8" opacity="0" />
  <line id="mol17:Bond:7" class="event" x1="191.57" y1="100" x2="170.78" y2="88" stroke-width="8" opacity="0" />
  <line id="mol17:Bond:9" class="event" x1="170.78" y1="136" x2="191.57" y2="124" stroke-width="8" opacity="0" />
  <line id="mol17:Bond:0" class="event" x1="150" y1="100" x2="129.21" y2="88" stroke-width="8" opacity="0" />
  <line id="mol17:Bond:1" class="event" x1="129.21" y1="64" x2="129.21" y2="88" stroke-width="8" opacity="0" />
  <line id="mol17:Bond:4" class="event" x1="170.78" y1="88" x2="150" y2="100" stroke-width="8" opacity="0" />
  <line id="mol17:Bond:5" class="event" x1="129.21" y1="136" x2="150" y2="124" stroke-width="8" opacity="0" />
  <line id="mol17:Bond:6" class="event" x1="170.78" y1="136" x2="150" y2="124" stroke-width="8" opacity="0" />
  <line id="mol17:Bond:8" class="event" x1="191.57" y1="124" x2="191.57" y2="100" stroke-width="8" opacity="0" />
  <circle id="mol17:Atom:0" class="event" cx="129.21" cy="88" r="8" opacity="0" />
  <circle id="mol17:Atom:1" class="event" cx="150" cy="100" r="8" opacity="0" />
  <circle id="mol17:Atom:2" class="event" cx="129.21" cy="64" r="8" opacity="0" />
  <circle id="mol17:Atom:3" class="event" cx="108.43" cy="100" r="8" opacity="0" />
  <circle id="mol17:Atom:4" class="event" cx="150" cy="124" r="8" opacity="0" />
  <circle id="mol17:Atom:5" class="event" cx="170.78" cy="88" r="8" opacity="0" />
  <circle id="mol17:Atom:6" class="event" cx="129.21" cy="136" r="8" opacity="0" />
  <circle id="mol17:Atom:7" class="event" cx="170.78" cy="136" r="8" opacity="0" />
  <circle id="mol17:Atom:8" class="event" cx="191.57" cy="100" r="8" opacity="0" />
  <circle id="mol17:Atom:9" class="event" cx="191.57" cy="124" r="8" opacity="0" />
</svg>