<svg id="mol18" xmlns="http://www.w3.org/2000/svg" version="1.1" width="119px" height="96px" viewBox="91 57 119 96">
  <style> text {font-family: sans-serif;} #mol18 { pointer-events:none; } #mol18 .event  { pointer-events:all; } line { stroke-linecap:round; } polygon { stroke-linejoin:round; } </style>
  <text x="134.16" y="140.67" stroke="none" font-size="14" fill="rgb(255,13,13)">O</text>
  <text x="176.12" y="140.66" stroke="none" font-size="14" fill="rgb(48,80,248)">N</text>
  <text x="196.34" y="144" stroke="none" font-size="9" fill="rgb(48,80,248)">2</text>
  <text x="186.23" y="140.66" stroke="none" font-size="14" fill="rgb(48,80,248)">H</text>
  <text x="113.38" y="104.67" stroke="none" font-size="14" fill="rgb(255,13,13)">O</text>
  <line x1="181.18" y1="112" x2="160.39" y2="100" stroke="rgb(0,0,0)" stroke-width="1.44" />
  <line x1="180.76" y1="107.6" x2="164.41" y2="98.16" stroke="rgb(0,0,0)" stroke-width="1.44" />
  <line x1="137.81" y1="110.96" x2="137.81" y2="129" stroke="rgb(0,0,0)" stroke-width="1.44" />
  <line x1="141.41" y1="110.96" x2="141.41" y2="129" stroke="rgb(0,0,0)" stroke-width="1.44" />
  <line x1="181.18" y1="64" x2="160.39" y2="76" stroke="rgb(0,0,0)" stroke-width="1.44" />
  <line x1="180.76" y1="68.4" x2="164.41" y2="77.84" stroke="rgb(0,0,0)" stroke-width="1.44" />
  <line x1="201.96" y1="100" x2="201.96" y2="76" stroke="rgb(0,0,0)" stroke-width="1.44" />
  <line x1="198.36" y1="97.44" x2="198.36" y2="78.56" stroke="rgb(0,0,0)" stroke-width="1.44" />
  <line x1="139.61" y1="112" x2="160.39" y2="100" stroke="rgb(0,0,0)" stroke-width="1.44" />
  <line x1="181.18" y1="129" x2="181.18" y2="112" stroke="rgb(0,0,0)" stroke-width="1.44" />
  <line x1="125.27" y1="103.72" x2="139.61" y2="112" stroke="rgb(0,0,0)" stroke-width="1.44" />
  <line x1="160.39" y1="76" x2="160.39" y2="100" stroke="rgb(0,0,0)" stroke-width="1.44" />
  <line x1="201.96" y1="100" x2="181.18" y2="112" stroke="rgb(0,0,0)" stroke-width="1.44" />
  <line x1="98.04" y1="112" x2="112.38" y2="103.72" stroke="rgb(0,0,0)" stroke-width="1.44" />
  <line x1="201.96" y1="76" x2="181.18" y2="64" stroke="rgb(0,0,0)" stroke-width="1.44" />
  <line id="mol18:Bond:1" class="event" x1="181.18" y1="112" x2="160.39" y2="100" stroke-width="8" opacity="0" />
  <line id="mol18:Bond:2" class="event" x1="139.61" y1="136" x2="139.61" y2="112" stroke-width="8" opacity="0" />
  <line id="mol18:Bond:8" class="event" x1="181.18" y1="64" x2="160.39" y2="76" stroke-width="8" opacity="0" />
  <line id="mol18:Bond:10" class="event" x1="201.96" y1="100" x2="201.96" y2="76" stroke-width="8" opacity="0" />
  <line id="mol18:Bond:0" class="event" x1="139.61" y1="112" x2="160.39" y2="100" stroke-width="8" opacity="0" />
  <line id="mol18:Bond:3" class="event" x1="181.18" y1="136" x2="181.18" y2="112" stroke-width="8" opacity="0" />
  <line id="mol18:Bond:4" class="event" x1="118.82" y1="100" x2="139.61" y2="112" stroke-width="8" opacity="0" />
  <line id="mol18:Bond:5" class="event" x1="160.39" y1="76" x2="160.39" y2="100" stroke-width="8" opacity="0" />
  <line id="mol18:Bond:6" class="event" x1="201.96" y1="100" x2="181.18" y2="112" stroke-width="8" opacity="0" />
  <line id="mol18:Bond:7" class="event" x1="98.04" y1="112" x2="118.82" y2="100" stroke-width="8" opacity="0" />
  <line id="mol18:Bond:9" class="event" x1="201.96" y1="76" x2="181.18" y2="64" stroke-width="8" opacity="0" />
  <circle id="mol18:Atom:0" class="event" cx="160.39" cy="100" r="8" opacity="0" />
  <circle id="mol18:Atom:1" class="event" cx="139.61" cy="112" r="8" opacity="0" />
  <circle id="mol18:Atom:2" class="event" cx="181.18" cy="112" r="8" opacity="0" />
  <circle id="mol18:Atom:3" class="event" cx="139.61" cy="136" r="8" opacity="0" />
  <circle id="mol18:Atom:4" class="event" cx="181.18" cy="136" r="8" opacity="0" />
  <circle id="mol18:Atom:5" class="event" cx="118.82" cy="100" r="8" opacity="0" />
  <circle id="mol18:Atom:6" class="event" cx="160.39" cy="76" r="8" opacity="0" />
  <circle id="mol18:Atom:7" class="event" cx="201.96" cy="100" r="8" opacity="0" />
  <circle id="mol18:Atom:8" class="event" cx="98.04" cy="112" r="8" opacity="0" />
  <circle id="mol18:Atom:9" class="event" cx="181.18" cy="64" r="8" opacity="0" />
  <circle id="mol18:Atom:10" class="event" cx="201.96" cy="76" r="8" opacity="0" />
</svg>