<svg id="mol19" xmlns="http://www.w3.org/2000/svg" version="1.1" width="188px" height="171px" viewBox="59 15 188 171">
  <style> text {font-family: sans-serif;} #mol19 { pointer-events:none; } #mol19 .event  { pointer-events:all; } line { stroke-linecap:round; } polygon { stroke-linejoin:round; } </style>
  <text x="227.69" y="98.67" stroke="none" font-size="14" fill="rgb(255,13,13)">O</text>
  <text x="165.34" y="110.67" stroke="none" font-size="14" fill="rgb(255,13,13)">O</text>
  <text x="186.12" y="98.67" stroke="none" font-size="14" fill="rgb(255,13,13)">O</text>
  <text x="144.55" y="146.67" stroke="none" font-size="14" fill="rgb(255,13,13)">O</text>
  <line x1="191.57" y1="142" x2="212.35" y2="130" stroke="rgb(0,0,0)" stroke-width="1.44" />
  <line x1="195.59" y1="143.84" x2="211.94" y2="134.4" stroke="rgb(0,0,0)" stroke-width="1.44" />
  <line x1="212.35" y1="108.08" x2="227.59" y2="99.28" stroke="rgb(0,0,0)" stroke-width="1.44" />
  <line x1="210.55" y1="104.96" x2="225.79" y2="96.16" stroke="rgb(0,0,0)" stroke-width="1.44" />
  <line x1="172.58" y1="131.04" x2="172.58" y2="113" stroke="rgb(0,0,0)" stroke-width="1.44" />
  <line x1="168.98" y1="131.04" x2="168.98" y2="113" stroke="rgb(0,0,0)" stroke-width="1.44" />
  <line x1="233.14" y1="166" x2="233.14" y2="142" stroke="rgb(0,0,0)" stroke-width="1.44" />
  <line x1="229.54" y1="163.44" x2="229.54" y2="144.56" stroke="rgb(0,0,0)" stroke-width="1.44" />
  <line x1="191.57" y1="166" x2="212.35" y2="178" stroke="rgb(0,0,0)" stroke-width="1.44" />
  <line x1="195.59" y1="164.16" x2="211.93" y2="173.6" stroke="rgb(0,0,0)" stroke-width="1.44" />
  <line x1="212.35" y1="106" x2="212.35" y2="130" stroke="rgb(0,0,0)" stroke-width="1.44" />
  <line x1="170.78" y1="130" x2="191.57" y2="142" stroke="rgb(0,0,0)" stroke-width="1.44" />
  <line x1="198.01" y1="97.72" x2="212.35" y2="106" stroke="rgb(0,0,0)" stroke-width="1.44" />
  <line x1="156.45" y1="138.28" x2="170.78" y2="130" stroke="rgb(0,0,0)" stroke-width="1.44" />
  <line x1="191.57" y1="166" x2="191.57" y2="142" stroke="rgb(0,0,0)" stroke-width="1.44" />
  <line x1="233.14" y1="142" x2="212.35" y2="130" stroke="rgb(0,0,0)" stroke-width="1.44" />
  <line x1="191.57" y1="70" x2="191.57" y2="87" stroke="rgb(0,0,0)" stroke-width="1.44" />
  <line x1="129.21" y1="130" x2="143.55" y2="138.28" stroke="rgb(0,0,0)" stroke-width="1.44" />
  <line x1="170.78" y1="58" x2="191.57" y2="70" stroke="rgb(0,0,0)" stroke-width="1.44" />
  <line x1="108.43" y1="142" x2="129.21" y2="130" stroke="rgb(0,0,0)" stroke-width="1.44" />
  <line x1="170.78" y1="34" x2="170.78" y2="58" stroke="rgb(0,0,0)" stroke-width="1.44" />
  <line x1="87.65" y1="130" x2="108.43" y2="142" stroke="rgb(0,0,0)" stroke-width="1.44" />
  <line x1="212.35" y1="178" x2="233.14" y2="166" stroke="rgb(0,0,0)" stroke-width="1.44" />
  <line x1="150" y1="22" x2="170.78" y2="34" stroke="rgb(0,0,0)" stroke-width="1.44" />
  <line x1="66.86" y1="142" x2="87.65" y2="130" stroke="rgb(0,0,0)" stroke-width="1.44" />
  <line id="mol19:Bond:0" class="event" x1="191.57" y1="142" x2="212.35" y2="130" stroke-width="8" opacity="0" />
  <line id="mol19:Bond:3" class="event" x1="233.14" y1="94" x2="212.35" y2="106" stroke-width="8" opacity="0" />
  <line id="mol19:Bond:4" class="event" x1="170.78" y1="106" x2="170.78" y2="130" stroke-width="8" opacity="0" />
  <line id="mol19:Bond:15" class="event" x1="233.14" y1="166" x2="233.14" y2="142" stroke-width="8" opacity="0" />
  <line id="mol19:Bond:19" class="event" x1="191.57" y1="166" x2="212.35" y2="178" stroke-width="8" opacity="0" />
  <line id="mol19:Bond:1" class="event" x1="212.35" y1="106" x2="212.35" y2="130" stroke-width="8" opacity="0" />
  <line id="mol19:Bond:2" class="event" x1="170.78" y1="130" x2="191.57" y2="142" stroke-width="8" opacity="0" />
  <line id="mol19:Bond:5" class="event" x1="191.57" y1="94" x2="212.35" y2="106" stroke-width="8" opacity="0" />
  <line id="mol19:Bond:6" class="event" x1="150" y1="142" x2="170.78" y2="130" stroke-width="8" opacity="0" />
  <line id="mol19:Bond:7" class="event" x1="191.57" y1="166" x2="191.57" y2="142" stroke-width="8" opacity="0" />
  <line id="mol19:Bond:8" class="event" x1="233.14" y1="142" x2="212.35" y2="130" stroke-width="8" opacity="0" />
  <line id="mol19:Bond:9" class="event" x1="191.57" y1="70" x2="191.57" y2="94" stroke-width="8" opacity="0" />
  <line id="mol19:Bond:10" class="event" x1="129.21" y1="130" x2="150" y2="142" stroke-width="8" opacity="0" />
  <line id="mol19:Bond:11" class="event" x1="170.78" y1="58" x2="191.57" y2="70" stroke-width="8" opacity="0" />
  <line id="mol19:Bond:12" class="event" x1="108.43" y1="142" x2="129.21" y2="130" stroke-width="8" opacity="0" />
  <line id="mol19:Bond:13" class="event" x1="170.78" y1="34" x2="170.78" y2="58" stroke-width="8" opacity="0" />
  <line id="mol19:Bond:14" class="event" x1="87.65" y1="130" x2="108.43" y2="142" stroke-width="8" opacity="0" />
  <line id="mol19:Bond:16" class="event" x1="212.35" y1="178" x2="233.14" y2="166" stroke-width="8" opacity="0" />
  <line id="mol19:Bond:17" class="event" x1="150" y1="22" x2="170.78" y2="34" stroke-width="8" opacity="0" />
  <line id="mol19:Bond:18" class="event" x1="66.86" y1="142" x2="87.65" y2="130" stroke-width="8" opacity="0" />
  <circle id="mol19:Atom:0" class="event" cx="212.35" cy="130" r="8" opacity="0" />
  <circle id="mol19:Atom:1" class="event" cx="191.57" cy="142" r="8" opacity="0" />
  <circle id="mol19:Atom:2" class="event" cx="212.35" cy="106" r="8" opacity="0" />
  <circle id="mol19:Atom:3" class="event" cx="170.78" cy="130" r="8" opacity="0" />
  <circle id="mol19:Atom:4" class="event" cx="233.14" cy="94" r="8" opacity="0" />
  <circle id="mol19:Atom:5" class="event" cx="170.78" cy="106" r="8" opacity="0" />
  <circle id="mol19:Atom:6" class="event" cx="191.57" cy="94" r="8" opacity="0" />
  <circle id="mol19:Atom:7" class="event" cx="150" cy="142" r="8" opacity="0" />
  <circle id="mol19:Atom:8" class="event" cx="191.57" cy="166" r="8" opacity="0" />
  <circle id="mol19:Atom:9" class="event" cx="233.14" cy="142" r="8" opacity="0" />
  <circle id="mol19:Atom:10" class="event" cx="191.57" cy="70" r="8" opacity="0" />
  <circle id="mol19:Atom:11" class="event" cx="129.21" cy="130" r="8" opacity="0" />
  <circle id="mol19:Atom:12" class="event" cx="170.78" cy="58" r="8" opacity="0" />
  <circle id="mol19:Atom:13" class="event" cx="108.43" cy="142" r="8" opacity="0" />
  <circle id="mol19:Atom:14" class="event" cx="170.78" cy="34" r="8" opacity="0" />
  <circle id="mol19:Atom:15" class="event" cx="87.65" cy="130" r="8" opacity="0" />
  <circle id="mol19:Atom:16" class="event" cx="233.14" cy="166" r="8" opacity="0" />
  <circle id="mol19:Atom:17" class="event" cx="212.35" cy="178" r="8" opacity="0" />
  <circle id="mol19:Atom:18" class="event" cx="150" cy="22" r="8" opacity="0" />
  <circle id="mol19:Atom:19" class="event" cx="66.86" cy="142" r="8" opacity="0" />
</svg>