<svg id="mol3" xmlns="http://www.w3.org/2000/svg" version="1.1" width="126px" height="101px" viewBox="91 50 126 101">
  <style> text {font-family: sans-serif;} #mol3 { pointer-events:none; } #mol3 .event  { pointer-events:all; } line { stroke-linecap:round; } polygon { stroke-linejoin:round; } </style>
  <text x="113.38" y="68.67" stroke="none" font-size="14" fill="rgb(255,13,13)">O</text>
  <text x="195.35" y="140.67" stroke="none" font-size="14" fill="rgb(31,240,31)">Cl</text>
  <line x1="120.62" y1="89.04" x2="120.62" y2="71" stroke="rgb(0,0,0)" stroke-width="1.44" />
  <line x1="117.02" y1="89.04" x2="117.02" y2="71" stroke="rgb(0,0,0)" stroke-width="1.44" />
  <line x1="160.39" y1="88" x2="139.61" y2="100" stroke="rgb(0,0,0)" stroke-width="1.44" />
  <line x1="159.97" y1="92.4" x2="143.62" y2="101.84" stroke="rgb(0,0,0)" stroke-width="1.44" />
  <line x1="181.18" y1="124" x2="181.18" y2="100" stroke="rgb(0,0,0)" stroke-width="1.44" />
  <line x1="177.58" y1="121.44" x2="177.58" y2="102.56" stroke="rgb(0,0,0)" stroke-width="1.44" />
  <line x1="160.39" y1="136" x2="139.61" y2="124" stroke="rgb(0,0,0)" stroke-width="1.44" />
  <line x1="159.97" y1="131.6" x2="143.62" y2="122.16" stroke="rgb(0,0,0)" stroke-width="1.44" />
  <line x1="139.61" y1="100" x2="118.82" y2="88" stroke="rgb(0,0,0)" stroke-width="1.44" />
  <line x1="139.61" y1="124" x2="139.61" y2="100" stroke="rgb(0,0,0)" stroke-width="1.44" />
  <line x1="181.18" y1="100" x2="160.39" y2="88" stroke="rgb(0,0,0)" stroke-width="1.44" />
  <line x1="194.35" y1="131.61" x2="181.18" y2="124" stroke="rgb(0,0,0)" stroke-width="1.44" />
  <line x1="98.04" y1="100" x2="118.82" y2="88" stroke="rgb(0,0,0)" stroke-width="1.44" />
  <line x1="160.39" y1="136" x2="181.18" y2="124" stroke="rgb(0,0,0)" stroke-width="1.44" />
  <line id="mol3:Bond:1" class="event" x1="118.82" y1="64" x2="118.82" y2="88" stroke-width="8" opacity="0" />
  <line id="mol3:Bond:3" class="event" x1="160.39" y1="88" x2="139.61" y2="100" stroke-width="8" opacity="0" />
  <line id="mol3:Bond:4" class="event" x1="181.18" y1="124" x2="181.18" y2="100" stroke-width="8" opacity="0" />
  <line id="mol3:Bond:5" class="event" x1="160.39" y1="136" x2="139.61" y2="124" stroke-width="8" opacity="0" />
  <line id="mol3:Bond:0" class="event" x1="139.61" y1="100" x2="118.82" y2="88" stroke-width="8" opacity="0" />
  <line id="mol3:Bond:2" class="event" x1="139.61" y1="124" x2="139.61" y2="100" stroke-width="8" opacity="0" />
  <line id="mol3:Bond:6" class="event" x1="181.18" y1="100" x2="160.39" y2="88" stroke-width="8" opacity="0" />
  <line id="mol3:Bond:7" class="event" x1="201.96" y1="136" x2="181.18" y2="124" stroke-width="8" opacity="0" />
  <line id="mol3:Bond:8" class="event" x1="98.04" y1="100" x2="118.82" y2="88" stroke-width="8" opacity="0" />
  <line id="mol3:Bond:9" class="event" x1="160.39" y1="136" x2="181.18" y2="124" stroke-width="8" opacity="0" />
  <circle id="mol3:Atom:0" class="event" cx="118.82" cy="88" r="8" opacity="0" />
  <circle id="mol3:Atom:1" class="event" cx="139.61" cy="100" r="8" opacity="0" />
  <circle id="mol3:Atom:2" class="event" cx="118.82" cy="64" r="8" opacity="0" />
  <circle id="mol3:Atom:3" class="event" cx="139.61" cy="124" r="8" opacity="0" />
  <circle id="mol3:Atom:4" class="event" cx="160.39" cy="88" r="8" opacity="0" />
  <circle id="mol3:Atom:5" class="event" cx="181.18" cy="124" r="8" opacity="0" />
  <circle id="mol3:Atom:6" class="event" cx="160.39" cy="136" r="8" opacity="0" />
  <circle id="mol3:Atom:7" class="event" cx="181.18" cy="100" r="8" opacity="0" />
  <circle id="mol3:Atom:8" class="event" cx="201.96" cy="136" r="8" opacity="0" />
  <circle id="mol3:Atom:9" class="event" cx="98.04" cy="100" r="8" opacity="0" />
</svg>