<svg id="mol4" xmlns="http://www.w3.org/2000/svg" version="1.1" width="119px" height="72px" viewBox="101 69 119 72">
  <style> text {font-family: sans-serif;} #mol4 { pointer-events:none; } #mol4 .event  { pointer-events:all; } line { stroke-linecap:round; } polygon { stroke-linejoin:round; } </style>
  <text x="186.52" y="128.67" stroke="none" font-size="14" fill="rgb(48,80,248)">N</text>
  <text x="206.73" y="132" stroke="none" font-size="9" fill="rgb(48,80,248)">2</text>
  <text x="196.62" y="128.67" stroke="none" font-size="14" fill="rgb(48,80,248)">H</text>
  <line x1="170.78" y1="112" x2="150" y2="124" stroke="rgb(0,0,0)" stroke-width="1.44" />
  <line x1="166.77" y1="110.16" x2="150.42" y2="119.6" stroke="rgb(0,0,0)" stroke-width="1.44" />
  <line x1="129.21" y1="88" x2="129.21" y2="112" stroke="rgb(0,0,0)" stroke-width="1.44" />
  <line x1="132.81" y1="90.56" x2="132.81" y2="109.44" stroke="rgb(0,0,0)" stroke-width="1.44" />
  <line x1="150" y1="76" x2="170.78" y2="88" stroke="rgb(0,0,0)" stroke-width="1.44" />
  <line x1="150.42" y1="80.4" x2="166.77" y2="89.84" stroke="rgb(0,0,0)" stroke-width="1.44" />
  <line x1="185.52" y1="120.5" x2="170.78" y2="112" stroke="rgb(0,0,0)" stroke-width="1.44" />
  <line x1="129.21" y1="112" x2="150" y2="124" stroke="rgb(0,0,0)" stroke-width="1.44" />
  <line x1="150" y1="76" x2="129.21" y2="88" stroke="rgb(0,0,0)" stroke-width="1.44" />
  <line x1="170.78" y1="88" x2="170.78" y2="112" stroke="rgb(0,0,0)" stroke-width="1.44" />
  <line x1="108.43" y1="124" x2="129.21" y2="112" stroke="rgb(0,0,0)" stroke-width="1.44" />
  <line id="mol4:Bond:0" class="event" x1="170.78" y1="112" x2="150" y2="124" stroke-width="8" opacity="0" />
  <line id="mol4:Bond:5" class="event" x1="129.21" y1="88" x2="129.21" y2="112" stroke-width="8" opacity="0" />
  <line id="mol4:Bond:7" class="event" x1="150" y1="76" x2="170.78" y2="88" stroke-width="8" opacity="0" />
  <line id="mol4:Bond:1" class="event" x1="191.57" y1="124" x2="170.78" y2="112" stroke-width="8" opacity="0" />
  <line id="mol4:Bond:2" class="event" x1="129.21" y1="112" x2="150" y2="124" stroke-width="8" opacity="0" />
  <line id="mol4:Bond:3" class="event" x1="150" y1="76" x2="129.21" y2="88" stroke-width="8" opacity="0" />
  <line id="mol4:Bond:4" class="event" x1="170.78" y1="88" x2="170.78" y2="112" stroke-width="8" opacity="0" />
  <line id="mol4:Bond:6" class="event" x1="108.43" y1="124" x2="129.21" y2="112" stroke-width="8" opacity="0" />
  <circle id="mol4:Atom:0" class="event" cx="150" cy="124" r="8" opacity="0" />
  <circle id="mol4:Atom:1" class="event" cx="170.78" cy="112" r="8" opacity="0" />
  <circle id="mol4:Atom:2" class="event" cx="191.57" cy="124" r="8" opacity="0" />
  <circle id="mol4:Atom:3" class="event" cx="129.21" cy="112" r="8" opacity="0" />
  <circle id="mol4:Atom:4" class="event" cx="150" cy="76" r="8" opacity="0" />
  <circle id="mol4:Atom:5" class="event" cx="170.78" cy="88" r="8" opacity="0" />
  <circle id="mol4:Atom:6" class="event" cx="129.21" cy="88" r="8" opacity="0" />
  <circle id="mol4:Atom:7" class="event" cx="108.43" cy="124" r="8" opacity="0" />
</svg>