<svg id="mol5" xmlns="http://www.w3.org/2000/svg" version="1.1" width="135px" height="70px" viewBox="74 69 135 70">
  <style> text {font-family: sans-serif;} #mol5 { pointer-events:none; } #mol5 .event  { pointer-events:all; } line { stroke-linecap:round; } polygon { stroke-linejoin:round; } </style>
  <text x="92.59" y="128.67" stroke="none" font-size="14" fill="rgb(255,13,13)">O</text>
  <text x="82.48" y="128.67" stroke="none" font-size="14" fill="rgb(255,13,13)">H</text>
  <line x1="181.18" y1="124" x2="160.39" y2="112" stroke="rgb(0,0,0)" stroke-width="1.44" />
  <line x1="180.76" y1="119.6" x2="164.41" y2="110.16" stroke="rgb(0,0,0)" stroke-width="1.44" />
  <line x1="181.18" y1="76" x2="160.39" y2="88" stroke="rgb(0,0,0)" stroke-width="1.44" />
  <line x1="180.76" y1="80.4" x2="164.41" y2="89.84" stroke="rgb(0,0,0)" stroke-width="1.44" />
  <line x1="201.96" y1="112" x2="201.96" y2="88" stroke="rgb(0,0,0)" stroke-width="1.44" />
  <line x1="198.36" y1="109.44" x2="198.36" y2="90.56" stroke="rgb(0,0,0)" stroke-width="1.44" />
  <line x1="104.48" y1="120.28" x2="118.82" y2="112" stroke="rgb(0,0,0)" stroke-width="1.44" />
  <line x1="118.82" y1="112" x2="139.61" y2="124" stroke="rgb(0,0,0)" stroke-width="1.44" />
  <line x1="139.61" y1="124" x2="160.39" y2="112" stroke="rgb(0,0,0)" stroke-width="1.44" />
  <line x1="160.39" y1="88" x2="160.39" y2="112" stroke="rgb(0,0,0)" stroke-width="1.44" />
  <line x1="201.96" y1="112" x2="181.18" y2="124" stroke="rgb(0,0,0)" stroke-width="1.44" />
  <line x1="201.96" y1="88" x2="181.18" y2="76" stroke="rgb(0,0,0)" stroke-width="1.44" />
  <line id="mol5:Bond:3" class="event" x1="181.18" y1="124" x2="160.39" y2="112" stroke-width="8" opacity="0" />
  <line id="mol5:Bond:6" class="event" x1="181.18" y1="76" x2="160.39" y2="88" stroke-width="8" opacity="0" />
  <line id="mol5:Bond:8" class="event" x1="201.96" y1="112" x2="201.96" y2="88" stroke-width="8" opacity="0" />
  <line id="mol5:Bond:0" class="event" x1="98.04" y1="124" x2="118.82" y2="112" stroke-width="8" opacity="0" />
  <line id="mol5:Bond:1" class="event" x1="118.82" y1="112" x2="139.61" y2="124" stroke-width="8" opacity="0" />
  <line id="mol5:Bond:2" class="event" x1="139.61" y1="124" x2="160.39" y2="112" stroke-width="8" opacity="0" />
  <line id="mol5:Bond:4" class="event" x1="160.39" y1="88" x2="160.39" y2="112" stroke-width="8" opacity="0" />
  <line id="mol5:Bond:5" class="event" x1="201.96" y1="112" x2="181.18" y2="124" stroke-width="8" opacity="0" />
  <line id="mol5:Bond:7" class="event" x1="201.96" y1="88" x2="181.18" y2="76" stroke-width="8" opacity="0" />
  <circle id="mol5:Atom:0" class="event" cx="160.39" cy="112" r="8" opacity="0" />
  <circle id="mol5:Atom:1" class="event" cx="98.04" cy="124" r="8" opacity="0" />
  <circle id="mol5:Atom:2" class="event" cx="118.82" cy="112" r="8" opacity="0" />
  <circle id="mol5:Atom:3" class="event" cx="139.61" cy="124" r="8" opacity="0" />
  <circle id="mol5:Atom:4" class="event" cx="181.18" cy="124" r="8" opacity="0" />
  <circle id="mol5:Atom:5" class="event" cx="160.39" cy="88" r="8" opacity="0" />
  <circle id="mol5:Atom:6" class="event" cx="201.96" cy="112" r="8" opacity="0" />
  <circle id="mol5:Atom:7" class="event" cx="181.18" cy="76" r="8" opacity="0" />
  <circle id="mol5:Atom:8" class="event" cx="201.96" cy="88" r="8" opacity="0" />
</svg>