<svg id="mol9" xmlns="http://www.w3.org/2000/svg" version="1.1" width="140px" height="94px" viewBox="80 57 140 94">
  <style> text {font-family: sans-serif;} #mol9 { pointer-events:none; } #mol9 .event  { pointer-events:all; } line { stroke-linecap:round; } polygon { stroke-linejoin:round; } </style>
  <text x="123.77" y="140.67" stroke="none" font-size="14" fill="rgb(255,13,13)">O</text>
  <line x1="127.41" y1="110.96" x2="127.41" y2="129" stroke="rgb(0,0,0)" stroke-width="1.44" />
  <line x1="131.01" y1="110.96" x2="131.01" y2="129" stroke="rgb(0,0,0)" stroke-width="1.44" />
  <line x1="170.79" y1="112" x2="150" y2="100" stroke="rgb(0,0,0)" stroke-width="1.44" />
  <line x1="170.37" y1="107.6" x2="154.02" y2="98.16" stroke="rgb(0,0,0)" stroke-width="1.44" />
  <line x1="170.79" y1="64" x2="150" y2="76" stroke="rgb(0,0,0)" stroke-width="1.44" />
  <line x1="170.37" y1="68.4" x2="154.02" y2="77.84" stroke="rgb(0,0,0)" stroke-width="1.44" />
  <line x1="191.57" y1="100" x2="191.57" y2="76" stroke="rgb(0,0,0)" stroke-width="1.44" />
  <line x1="187.97" y1="97.44" x2="187.97" y2="78.56" stroke="rgb(0,0,0)" stroke-width="1.44" />
  <line x1="150" y1="100" x2="129.21" y2="112" stroke="rgb(0,0,0)" stroke-width="1.44" />
  <line x1="150" y1="76" x2="150" y2="100" stroke="rgb(0,0,0)" stroke-width="1.44" />
  <line x1="191.57" y1="100" x2="170.79" y2="112" stroke="rgb(0,0,0)" stroke-width="1.44" />
  <line x1="191.57" y1="76" x2="170.79" y2="64" stroke="rgb(0,0,0)" stroke-width="1.44" />
  <line x1="108.43" y1="100" x2="129.21" y2="112" stroke="rgb(0,0,0)" stroke-width="1.44" />
  <line x1="212.35" y1="64" x2="191.57" y2="76" stroke="rgb(0,0,0)" stroke-width="1.44" />
  <line x1="87.65" y1="112" x2="108.43" y2="100" stroke="rgb(0,0,0)" stroke-width="1.44" />
  <line id="mol9:Bond:1" class="event" x1="129.21" y1="136" x2="129.21" y2="112" stroke-width="8" opacity="0" />
  <line id="mol9:Bond:2" class="event" x1="170.79" y1="112" x2="150" y2="100" stroke-width="8" opacity="0" />
  <line id="mol9:Bond:4" class="event" x1="170.79" y1="64" x2="150" y2="76" stroke-width="8" opacity="0" />
  <line id="mol9:Bond:10" class="event" x1="191.57" y1="100" x2="191.57" y2="76" stroke-width="8" opacity="0" />
  <line id="mol9:Bond:0" class="event" x1="150" y1="100" x2="129.21" y2="112" stroke-width="8" opacity="0" />
  <line id="mol9:Bond:3" class="event" x1="150" y1="76" x2="150" y2="100" stroke-width="8" opacity="0" />
  <line id="mol9:Bond:5" class="event" x1="191.57" y1="100" x2="170.79" y2="112" stroke-width="8" opacity="0" />
  <line id="mol9:Bond:6" class="event" x1="191.57" y1="76" x2="170.79" y2="64" stroke-width="8" opacity="0" />
  <line id="mol9:Bond:7" class="event" x1="108.43" y1="100" x2="129.21" y2="112" stroke-width="8" opacity="0" />
  <line id="mol9:Bond:8" class="event" x1="212.35" y1="64" x2="191.57" y2="76" stroke-width="8" opacity="0" />
  <line id="mol9:Bond:9" class="event" x1="87.65" y1="112" x2="108.43" y2="100" stroke-width="8" opacity="0" />
  <circle id="mol9:Atom:0" class="event" cx="129.21" cy="112" r="8" opacity="0" />
  <circle id="mol9:Atom:1" class="event" cx="150" cy="100" r="8" opacity="0" />
  <circle id="mol9:Atom:2" class="event" cx="129.21" cy="136" r="8" opacity="0" />
  <circle id="mol9:Atom:3" class="event" cx="170.79" cy="112" r="8" opacity="0" />
  <circle id="mol9:Atom:4" class="event" cx="150" cy="76" r="8" opacity="0" />
  <circle id="mol9:Atom:5" class="event" cx="170.79" cy="64" r="8" opacity="0" />
  <circle id="mol9:Atom:6" class="event" cx="191.57" cy="100" r="8" opacity="0" />
  <circle id="mol9:Atom:7" class="event" cx="191.57" cy="76" r="8" opacity="0" />
  <circle id="mol9:Atom:8" class="event" cx="108.43" cy="100" r="8" opacity="0" />
  <circle id="mol9:Atom:9" class="event" cx="212.35" cy="64" r="8" opacity="0" />
  <circle id="mol9:Atom:10" class="event" cx="87.65" cy="112" r="8" opacity="0" />
</svg>