<svg id="mol10" xmlns="http://www.w3.org/2000/svg" version="1.1" width="146px" height="135px" viewBox="80 33 146 135">
  <style> text {font-family: sans-serif;} #mol10 { pointer-events:none; } #mol10 .event  { pointer-events:all; } line { stroke-linecap:round; } polygon { stroke-linejoin:round; } </style>
  <text x="206.91" y="80.67" stroke="none" font-size="14" fill="rgb(255,13,13)">O</text>
  <text x="144.55" y="92.67" stroke="none" font-size="14" fill="rgb(255,13,13)">O</text>
  <text x="165.34" y="80.67" stroke="none" font-size="14" fill="rgb(255,13,13)">O</text>
  <text x="123.77" y="128.67" stroke="none" font-size="14" fill="rgb(255,13,13)">O</text>
  <line x1="170.79" y1="124" x2="191.57" y2="112" stroke="rgb(0,0,0)" stroke-width="1.44" />
  <line x1="174.8" y1="125.84" x2="191.15" y2="116.4" stroke="rgb(0,0,0)" stroke-width="1.44" />
  <line x1="191.57" y1="90.08" x2="206.81" y2="81.28" stroke="rgb(0,0,0)" stroke-width="1.44" />
  <line x1="189.77" y1="86.96" x2="205.01" y2="78.16" stroke="rgb(0,0,0)" stroke-width="1.44" />
  <line x1="151.8" y1="113.04" x2="151.8" y2="95" stroke="rgb(0,0,0)" stroke-width="1.44" />
  <line x1="148.2" y1="113.04" x2="148.2" y2="95" stroke="rgb(0,0,0)" stroke-width="1.44" />
  <line x1="212.35" y1="148" x2="212.35" y2="124" stroke="rgb(0,0,0)" stroke-width="1.44" />
  <line x1="208.75" y1="145.44" x2="208.75" y2="126.56" stroke="rgb(0,0,0)" stroke-width="1.44" />
  <line x1="170.79" y1="148" x2="191.57" y2="160" stroke="rgb(0,0,0)" stroke-width="1.44" />
  <line x1="174.8" y1="146.16" x2="191.15" y2="155.6" stroke="rgb(0,0,0)" stroke-width="1.44" />
  <line x1="191.57" y1="88" x2="191.57" y2="112" stroke="rgb(0,0,0)" stroke-width="1.44" />
  <line x1="150" y1="112" x2="170.79" y2="124" stroke="rgb(0,0,0)" stroke-width="1.44" />
  <line x1="177.23" y1="79.72" x2="191.57" y2="88" stroke="rgb(0,0,0)" stroke-width="1.44" />
  <line x1="135.66" y1="120.28" x2="150" y2="112" stroke="rgb(0,0,0)" stroke-width="1.44" />
  <line x1="170.79" y1="148" x2="170.79" y2="124" stroke="rgb(0,0,0)" stroke-width="1.44" />
  <line x1="212.35" y1="124" x2="191.57" y2="112" stroke="rgb(0,0,0)" stroke-width="1.44" />
  <line x1="170.79" y1="52" x2="170.79" y2="69" stroke="rgb(0,0,0)" stroke-width="1.44" />
  <line x1="108.43" y1="112" x2="122.77" y2="120.28" stroke="rgb(0,0,0)" stroke-width="1.44" />
  <line x1="191.57" y1="160" x2="212.35" y2="148" stroke="rgb(0,0,0)" stroke-width="1.44" />
  <line x1="150" y1="40" x2="170.79" y2="52" stroke="rgb(0,0,0)" stroke-width="1.44" />
  <line x1="87.65" y1="124" x2="108.43" y2="112" stroke="rgb(0,0,0)" stroke-width="1.44" />
  <line id="mol10:Bond:0" class="event" x1="170.79" y1="124" x2="191.57" y2="112" stroke-width="8" opacity="0" />
  <line id="mol10:Bond:3" class="event" x1="212.35" y1="76" x2="191.57" y2="88" stroke-width="8" opacity="0" />
  <line id="mol10:Bond:4" class="event" x1="150" y1="88" x2="150" y2="112" stroke-width="8" opacity="0" />
  <line id="mol10:Bond:12" class="event" x1="212.35" y1="148" x2="212.35" y2="124" stroke-width="8" opacity="0" />
  <line id="mol10:Bond:15" class="event" x1="170.79" y1="148" x2="191.57" y2="160" stroke-width="8" opacity="0" />
  <line id="mol10:Bond:1" class="event" x1="191.57" y1="88" x2="191.57" y2="112" stroke-width="8" opacity="0" />
  <line id="mol10:Bond:2" class="event" x1="150" y1="112" x2="170.79" y2="124" stroke-width="8" opacity="0" />
  <line id="mol10:Bond:5" class="event" x1="170.79" y1="76" x2="191.57" y2="88" stroke-width="8" opacity="0" />
  <line id="mol10:Bond:6" class="event" x1="129.21" y1="124" x2="150" y2="112" stroke-width="8" opacity="0" />
  <line id="mol10:Bond:7" class="event" x1="170.79" y1="148" x2="170.79" y2="124" stroke-width="8" opacity="0" />
  <line id="mol10:Bond:8" class="event" x1="212.35" y1="124" x2="191.57" y2="112" stroke-width="8" opacity="0" />
  <line id="mol10:Bond:9" class="event" x1="170.79" y1="52" x2="170.79" y2="76" stroke-width="8" opacity="0" />
  <line id="mol10:Bond:10" class="event" x1="108.43" y1="112" x2="129.21" y2="124" stroke-width="8" opacity="0" />
  <line id="mol10:Bond:11" class="event" x1="191.57" y1="160" x2="212.35" y2="148" stroke-width="8" opacity="0" />
  <line id="mol10:Bond:13" class="event" x1="150" y1="40" x2="170.79" y2="52" stroke-width="8" opacity="0" />
  <line id="mol10:Bond:14" class="event" x1="87.65" y1="124" x2="108.43" y2="112" stroke-width="8" opacity="0" />
  <circle id="mol10:Atom:0" class="event" cx="191.57" cy="112" r="8" opacity="0" />
  <circle id="mol10:Atom:1" class="event" cx="170.79" cy="124" r="8" opacity="0" />
  <circle id="mol10:Atom:2" class="event" cx="191.57" cy="88" r="8" opacity="0" />
  <circle id="mol10:Atom:3" class="event" cx="150" cy="112" r="8" opacity="0" />
  <circle id="mol10:Atom:4" class="event" cx="212.35" cy="76" r="8" opacity="0" />
  <circle id="mol10:Atom:5" class="event" cx="150" cy="88" r="8" opacity="0" />
  <circle id="mol10:Atom:6" class="event" cx="170.79" cy="76" r="8" opacity="0" />
  <circle id="mol10:Atom:7" class="event" cx="129.21" cy="124" r="8" opacity="0" />
  <circle id="mol10:Atom:8" class="event" cx="170.79" cy="148" r="8" opacity="0" />
  <circle id="mol10:Atom:9" class="event" cx="212.35" cy="124" r="8" opacity="0" />
  <circle id="mol10:Atom:10" class="event" cx="170.79" cy="52" r="8" opacity="0" />
  <circle id="mol10:Atom:11" class="event" cx="108.43" cy="112" r="8" opacity="0" />
  <circle id="mol10:Atom:12" class="event" cx="191.57" cy="160" r="8" opacity="0" />
  <circle id="mol10:Atom:13" class="event" cx="212.35" cy="148" r="8" opacity="0" />
  <circle id="mol10:Atom:14" class="event" cx="150" cy="40" r="8" opacity="0" />
  <circle id="mol10:Atom:15" class="event" cx="87.65" cy="124" r="8" opacity="0" />
</svg>