<svg id="mol20" xmlns="http://www.w3.org/2000/svg" version="1.1" width="167px" height="58px" viewBox="70 68 167 58">
  <style> text {font-family: sans-serif;} #mol20 { pointer-events:none; } #mol20 .event  { pointer-events:all; } line { stroke-linecap:round; } polygon { stroke-linejoin:round; } </style>
  <text x="217.3" y="86.67" stroke="none" font-size="14" fill="rgb(255,13,13)">O</text>
  <text x="175.73" y="86.67" stroke="none" font-size="14" fill="rgb(255,13,13)">O</text>
  <line x1="201.96" y1="96.08" x2="217.2" y2="87.28" stroke="rgb(0,0,0)" stroke-width="1.44" />
  <line x1="200.16" y1="92.96" x2="215.4" y2="84.16" stroke="rgb(0,0,0)" stroke-width="1.44" />
  <line x1="187.62" y1="85.72" x2="201.96" y2="94" stroke="rgb(0,0,0)" stroke-width="1.44" />
  <line x1="201.96" y1="118" x2="201.96" y2="94" stroke="rgb(0,0,0)" stroke-width="1.44" />
  <line x1="160.39" y1="94" x2="174.73" y2="85.72" stroke="rgb(0,0,0)" stroke-width="1.44" />
  <line x1="139.61" y1="82" x2="160.39" y2="94" stroke="rgb(0,0,0)" stroke-width="1.44" />
  <line x1="98.04" y1="82" x2="118.82" y2="94" stroke="rgb(0,0,0)" stroke-width="1.44" />
  <line x1="118.82" y1="94" x2="139.61" y2="82" stroke="rgb(0,0,0)" stroke-width="1.44" />
  <line x1="77.25" y1="94" x2="98.04" y2="82" stroke="rgb(0,0,0)" stroke-width="1.44" />
  <line id="mol20:Bond:0" class="event" x1="222.75" y1="82" x2="201.96" y2="94" stroke-width="8" opacity="0" />
  <line id="mol20:Bond:1" class="event" x1="181.18" y1="82" x2="201.96" y2="94" stroke-width="8" opacity="0" />
  <line id="mol20:Bond:2" class="event" x1="201.96" y1="118" x2="201.96" y2="94" stroke-width="8" opacity="0" />
  <line id="mol20:Bond:3" class="event" x1="160.39" y1="94" x2="181.18" y2="82" stroke-width="8" opacity="0" />
  <line id="mol20:Bond:4" class="event" x1="139.61" y1="82" x2="160.39" y2="94" stroke-width="8" opacity="0" />
  <line id="mol20:Bond:5" class="event" x1="98.04" y1="82" x2="118.82" y2="94" stroke-width="8" opacity="0" />
  <line id="mol20:Bond:6" class="event" x1="118.82" y1="94" x2="139.61" y2="82" stroke-width="8" opacity="0" />
  <line id="mol20:Bond:7" class="event" x1="77.25" y1="94" x2="98.04" y2="82" stroke-width="8" opacity="0" />
  <circle id="mol20:Atom:0" class="event" cx="201.96" cy="94" r="8" opacity="0" />
  <circle id="mol20:Atom:1" class="event" cx="222.75" cy="82" r="8" opacity="0" />
  <circle id="mol20:Atom:2" class="event" cx="181.18" cy="82" r="8" opacity="0" />
  <circle id="mol20:Atom:3" class="event" cx="201.96" cy="118" r="8" opacity="0" />
  <circle id="mol20:Atom:4" class="event" cx="160.39" cy="94" r="8" opacity="0" />
  <circle id="mol20:Atom:5" class="event" cx="139.61" cy="82" r="8" opacity="0" />
  <circle id="mol20:Atom:6" class="event" cx="98.04" cy="82" r="8" opacity="0" />
  <circle id="mol20:Atom:7" class="event" cx="118.82" cy="94" r="8" opacity="0" />
  <circle id="mol20:Atom:8" class="event" cx="77.25" cy="94" r="8" opacity="0" />
</svg>