<svg id="mol23" xmlns="http://www.w3.org/2000/svg" version="1.1" width="66px" height="48px" viewBox="120 76 66 48">
  <style> text {font-family: sans-serif;} #mol23 { pointer-events:none; } #mol23 .event  { pointer-events:all; } line { stroke-linecap:round; } polygon { stroke-linejoin:round; } </style>
  <text x="107.21" y="138.54" stroke="none" font-size="12" fill="rgb(160,0,0)">unknown chirality</text>
  <text x="166.95" y="109.06" stroke="none" font-size="14" fill="rgb(255,13,13)">O</text>
  <line x1="148.39" y1="104.39" x2="154.39" y2="94" stroke="rgb(192,0,255)" stroke-width="1.44" />
  <line x1="154.39" y1="94" x2="160.39" y2="83.61" stroke="rgb(0,0,0)" stroke-width="1.44" />
  <line x1="165.95" y1="104.39" x2="157.17" y2="104.39" stroke="rgb(0,0,0)" stroke-width="1.44" />
  <line x1="157.17" y1="104.39" x2="148.39" y2="104.39" stroke="rgb(192,0,255)" stroke-width="1.44" />
  <line x1="160.39" y1="83.61" x2="168.35" y2="97.39" stroke="rgb(0,0,0)" stroke-width="1.44" />
  <line x1="148.39" y1="104.39" x2="138" y2="110.39" stroke="rgb(192,0,255)" stroke-width="1.44" />
  <line x1="138" y1="110.39" x2="127.61" y2="116.39" stroke="rgb(0,0,0)" stroke-width="1.44" />
  <line id="mol23:Bond:0" class="event" x1="148.39" y1="104.39" x2="160.39" y2="83.61" stroke-width="8" opacity="0" />
  <line id="mol23:Bond:1" class="event" x1="172.39" y1="104.39" x2="148.39" y2="104.39" stroke-width="8" opacity="0" />
  <line id="mol23:Bond:2" class="event" x1="160.39" y1="83.61" x2="172.39" y2="104.39" stroke-width="8" opacity="0" />
  <line id="mol23:Bond:3" class="event" x1="148.39" y1="104.39" x2="127.61" y2="116.39" stroke-width="8" opacity="0" />
  <circle id="mol23:Atom:0" class="event" cx="160.39" cy="83.61" r="8" opacity="0" />
  <circle id="mol23:Atom:1" class="event" cx="148.39" cy="104.39" r="8" opacity="0" />
  <circle id="mol23:Atom:2" class="event" cx="172.39" cy="104.39" r="8" opacity="0" />
  <circle id="mol23:Atom:3" class="event" cx="127.61" cy="116.39" r="8" opacity="0" />
</svg>